<?xml version="1.0" encoding="UTF-8"?>
<!-- Generated by Pixelmator Pro 3.2.3 -->
<svg width="100" height="100" viewBox="0 0 100 100" xmlns="http://www.w3.org/2000/svg" xmlns:xlink="http://www.w3.org/1999/xlink">
    <g id="Group">
        <filter id="filter1" x="0" y="0" width="100" height="100" filterUnits="userSpaceOnUse" primitiveUnits="userSpaceOnUse" color-interpolation-filters="sRGB">
            <feGaussianBlur stdDeviation="5"/>
            <feOffset dx="-0" dy="2" result="offsetblur"/>
            <feFlood flood-color="#000000" flood-opacity="0.5"/>
            <feComposite in2="offsetblur" operator="in"/>
            <feMerge>
                <feMergeNode/>
                <feMergeNode in="SourceGraphic"/>
            </feMerge>
        </filter>
        <path id="Path" fill="#ffffff" stroke="none" filter="url(#filter1)" d="M 50 2 C 23.490332 2 2 23.490334 2 50 C 2 76.509666 23.490332 98 50 98 C 76.509666 98 98 76.509666 98 50 C 97.971779 23.502029 76.497971 2.028221 50 2 Z M 50 86 C 30.117748 86 14 69.882248 14 50 C 14 30.117752 30.117748 14 50 14 C 69.882248 14 86 30.117752 86 50 C 85.97834 69.873276 69.873276 85.97834 50 86 Z"/>
        <filter id="filter2" x="0" y="0" width="100" height="100" filterUnits="userSpaceOnUse" primitiveUnits="userSpaceOnUse" color-interpolation-filters="sRGB">
            <feGaussianBlur stdDeviation="5"/>
            <feOffset dx="-0" dy="2" result="offsetblur"/>
            <feFlood flood-color="#000000" flood-opacity="0.5"/>
            <feComposite in2="offsetblur" operator="in"/>
            <feMerge>
                <feMergeNode/>
                <feMergeNode in="SourceGraphic"/>
            </feMerge>
        </filter>
        <path id="path1" fill="#ffffff" stroke="none" filter="url(#filter2)" d="M 62 44 L 38 44 C 34.686291 44 32 46.686291 32 50 C 32 53.313709 34.686291 56 38 56 L 62 56 C 65.313705 56 68 53.313709 68 50 C 68 46.686291 65.313705 44 62 44 Z"/>
    </g>
</svg>
